<?xml version="1.0" encoding="utf-8"?>
<!-- Generator: Adobe Illustrator 22.1.0, SVG Export Plug-In . SVG Version: 6.00 Build 0)  -->
<svg version="1.1" xmlns="http://www.w3.org/2000/svg" xmlns:xlink="http://www.w3.org/1999/xlink" x="0px" y="0px"
	 viewBox="0 0 128 77.4" style="enable-background:new 0 0 128 77.4;" xml:space="preserve">
<style type="text/css">
	.st0{display:none;}
	.st1{display:inline;}
	.st2{fill:none;stroke:#FEE359;stroke-width:0.75;stroke-miterlimit:10;}
	.st3{fill:none;stroke:#414042;stroke-width:0.75;stroke-linecap:round;stroke-linejoin:round;stroke-miterlimit:10;}
	.st4{fill:#FFFFFF;stroke:#414042;stroke-width:0.75;stroke-linecap:round;stroke-linejoin:round;stroke-miterlimit:10;}
	.st5{fill:#7CBD42;stroke:#414042;stroke-width:0.75;stroke-linecap:round;stroke-linejoin:round;stroke-miterlimit:10;}
	.st6{fill:none;stroke:#FFFFFF;stroke-width:0.75;stroke-linecap:round;stroke-linejoin:round;stroke-miterlimit:10;}
	.st7{fill:#7CBD42;}
	.st8{fill:none;stroke:#7CBD42;stroke-width:0.75;stroke-linecap:round;stroke-linejoin:round;stroke-miterlimit:10;}
	.st9{fill:#FFFFFF;}
	.st10{fill:none;stroke:#414042;stroke-width:0.75;stroke-miterlimit:10;}
	.st11{fill:#FFFFFF;stroke:#000000;stroke-width:0.75;stroke-linecap:round;stroke-linejoin:round;stroke-miterlimit:10;}
	.st12{fill:none;stroke:#000000;stroke-width:0.75;stroke-linecap:round;stroke-linejoin:round;stroke-miterlimit:10;}
	.st13{fill:#FFFFFF;stroke:#7CBD42;stroke-width:0.75;stroke-linecap:round;stroke-linejoin:round;stroke-miterlimit:10;}
	.st14{fill:none;stroke:#7CBD42;stroke-width:0.75;stroke-linecap:round;stroke-linejoin:round;}
</style>
<g id="Layer_1" class="st0">
	<g class="st1">
		<path class="st2" d="M99.4,40.1L99.4,40.1c0,2.6,2.1,4.7,4.7,4.7h11c2.6,0,4.7,2.1,4.7,4.7v0c0,2.6-2.1,4.7-4.7,4.7h-6.4
			c-2.6,0-4.7,2.1-4.7,4.7v0c0,2.6-2.1,4.7-4.7,4.7H29.6c-2.6,0-4.7-2.1-4.7-4.7v0c0-2.6,2.1-4.7,4.7-4.7h1.2c2.6,0,4.7-2.1,4.7-4.7
			v0c0-2.6-2.1-4.7-4.7-4.7H8.2c-2.6,0-4.7-2.1-4.7-4.7v0c0-2.6,2.1-4.7,4.7-4.7h20.6c2.6,0,4.7-2.1,4.7-4.7v0
			c0-2.6-2.1-4.7-4.7-4.7h-2.3c-2.6,0-4.7-2.1-4.7-4.7v0c0-2.6,2.1-4.7,4.7-4.7h22.7c2.6,0,4.7-2.1,4.7-4.7v0C53.9,9.1,56,7,58.6,7
			h29c2.6,0,4.7,2.1,4.7,4.7v0c0,2.6,2.1,4.7,4.7,4.7h22.7c2.6,0,4.7,2.1,4.7,4.7v0c0,2.6-2.1,4.7-4.7,4.7h-2.3
			c-2.6,0-4.7,2.1-4.7,4.7v0c0,2.6-2.1,4.7-4.7,4.7h-3.8C101.5,35.4,99.4,37.5,99.4,40.1z"/>
		<polygon class="st3" points="87,37.1 40.7,37.1 46.5,34.1 92.8,34.1 		"/>
		<g>
			<polygon class="st4" points="69.1,20.8 56,39 56,20.8 			"/>
			<polygon class="st4" points="71,20.8 71,41.7 56,41.7 54.5,41.1 56,39 69.1,20.8 69.5,20.1 			"/>
			<rect x="54.5" y="20.1" class="st5" width="15" height="20.9"/>
			<line class="st6" x1="56.3" y1="23.2" x2="65" y2="23.2"/>
			<line class="st6" x1="56.3" y1="24.5" x2="60.6" y2="24.5"/>
		</g>
		<g>
			<polygon class="st4" points="58.4,26.9 64,47.8 45.5,52.8 38.9,28.3 53.9,24.3 			"/>
			<polygon class="st3" points="58.4,26.9 54.8,27.9 53.9,24.3 			"/>
			<g>
				<circle class="st7" cx="41.5" cy="29.5" r="0.7"/>
				<line class="st8" x1="43.2" y1="29.1" x2="45.5" y2="28.5"/>
				<line class="st8" x1="58.9" y1="44.4" x2="61.2" y2="43.8"/>
				<line class="st8" x1="44.8" y1="34.9" x2="55.9" y2="31.9"/>
				<line class="st8" x1="45.2" y1="43.1" x2="56.3" y2="40.1"/>
				<line class="st8" x1="43.5" y1="36.9" x2="56.3" y2="33.5"/>
				<line class="st8" x1="43.9" y1="38.5" x2="56.8" y2="35"/>
				<line class="st8" x1="44.3" y1="40" x2="57.2" y2="36.6"/>
				<line class="st8" x1="44.7" y1="41.6" x2="57.6" y2="38.1"/>
			</g>
		</g>
		<g>
			<g>
				<g>
					<rect x="69.2" y="27.5" transform="matrix(0.5 -0.866 0.866 0.5 9.8867 88.7916)" class="st9" width="25.3" height="16.6"/>
					<rect x="69.2" y="27.5" transform="matrix(0.5 -0.866 0.866 0.5 9.8867 88.7916)" class="st3" width="25.3" height="16.6"/>
				</g>
				<g>
					
						<rect x="68.2" y="26.3" transform="matrix(0.4226 -0.9063 0.9063 0.4226 15.3312 93.1883)" class="st9" width="25.3" height="16.6"/>
					
						<rect x="68.2" y="26.3" transform="matrix(0.4226 -0.9063 0.9063 0.4226 15.3312 93.1883)" class="st3" width="25.3" height="16.6"/>
				</g>
				<g>
					
						<rect x="67" y="25.1" transform="matrix(0.342 -0.9397 0.9397 0.342 21.0445 96.8236)" class="st9" width="25.3" height="16.6"/>
					
						<rect x="67" y="25.1" transform="matrix(0.342 -0.9397 0.9397 0.342 21.0445 96.8236)" class="st3" width="25.3" height="16.6"/>
				</g>
				<g>
					
						<rect x="65.8" y="24" transform="matrix(0.2588 -0.9659 0.9659 0.2588 26.9136 99.6974)" class="st9" width="25.3" height="16.6"/>
					
						<rect x="65.8" y="24" transform="matrix(0.2588 -0.9659 0.9659 0.2588 26.9136 99.6974)" class="st3" width="25.3" height="16.6"/>
				</g>
			</g>
			<g>
				<circle class="st8" cx="79.2" cy="29.2" r="4.4"/>
				<line class="st8" x1="75.9" y1="20.6" x2="86.6" y2="23.5"/>
				<line class="st8" x1="72.2" y1="34.3" x2="82.9" y2="37.2"/>
				<line class="st8" x1="71.9" y1="35.4" x2="82.6" y2="38.3"/>
				<line class="st8" x1="71.6" y1="36.5" x2="82.3" y2="39.4"/>
				<line class="st8" x1="78.2" y1="22.6" x2="83.6" y2="24"/>
			</g>
		</g>
		<g>
			<rect x="40.7" y="37.1" class="st4" width="46.2" height="33.3"/>
			<polygon class="st4" points="84.7,45.7 38.5,45.7 40.7,37.1 87,37.1 			"/>
			<polygon class="st4" points="92.8,67.4 87,70.4 87,37.1 92.8,34.1 			"/>
			<polygon class="st4" points="89.9,45.2 87,37.1 92.8,34.1 95.4,41.8 			"/>
		</g>
		<circle class="st10" cx="63.8" cy="57.7" r="9.4"/>
		<circle class="st10" cx="63.8" cy="57.7" r="6.2"/>
		<circle class="st7" cx="63.8" cy="57.7" r="2.2"/>
		<g>
			<line class="st3" x1="33.2" y1="59.1" x2="36.4" y2="59.1"/>
			<line class="st3" x1="18.4" y1="59.1" x2="31.8" y2="59.1"/>
		</g>
		<g>
			<line class="st3" x1="86.7" y1="14.2" x2="89.9" y2="14.2"/>
			<line class="st3" x1="71.9" y1="14.2" x2="85.3" y2="14.2"/>
		</g>
		<g>
			<line class="st3" x1="98.6" y1="51.5" x2="97" y2="51.5"/>
			<line class="st3" x1="107.9" y1="51.5" x2="100" y2="51.5"/>
		</g>
		<g>
			<line class="st3" x1="118.8" y1="31.9" x2="120.9" y2="31.9"/>
			<line class="st3" x1="105.5" y1="31.9" x2="117.4" y2="31.9"/>
		</g>
		<g>
			<line class="st3" x1="41.2" y1="21.5" x2="39.9" y2="21.5"/>
			<line class="st3" x1="48.7" y1="21.5" x2="42.6" y2="21.5"/>
		</g>
	</g>
	<g class="st1">
		<polygon class="st4" points="67.3,33.9 66.4,35.6 63.1,35.6 62.2,33.9 64.8,29.2 		"/>
		
			<rect x="62.4" y="35.6" transform="matrix(-1 -1.224647e-16 1.224647e-16 -1 129.5785 72.2905)" class="st4" width="4.7" height="1.1"/>
		<circle class="st7" cx="64.8" cy="33.6" r="0.8"/>
		<line class="st8" x1="64.8" y1="32.8" x2="64.8" y2="29.2"/>
		<polygon class="st3" points="67.3,33.9 66.4,35.6 63.1,35.6 62.2,33.9 64.8,29.2 		"/>
	</g>
</g>
<g id="Layer_2">
	<g>
		<path class="st2" d="M124.4,48L124.4,48c0,2.4-1.9,4.3-4.3,4.3h-4.5c-2.4,0-4.3,1.9-4.3,4.3v0c0,2.4-1.9,4.3-4.3,4.3H22.3
			c-2.4,0-4.3-1.9-4.3-4.3v0c0-2.4,1.9-4.3,4.3-4.3h4.5c2.4,0,4.3-1.9,4.3-4.3v0c0-2.4-1.9-4.3-4.3-4.3H7.9c-2.4,0-4.3-1.9-4.3-4.3
			v0c0-2.4,1.9-4.3,4.3-4.3h14.7c2.4,0,4.3-1.9,4.3-4.3v0c0-2.4-1.9-4.3-4.3-4.3H19c-2.4,0-4.3-1.9-4.3-4.3v0c0-2.4,1.9-4.3,4.3-4.3
			h22.1c2.4,0,4.3-1.9,4.3-4.3v0c0-2.4,1.9-4.3,4.3-4.3h34.3c2.4,0,4.3,1.9,4.3,4.3v0c0,2.4,1.9,4.3,4.3,4.3h11
			c2.4,0,4.3,1.9,4.3,4.3v0c0,2.4,1.9,4.3,4.3,4.3h3.6c2.4,0,4.3,1.9,4.3,4.3v0c0,2.4-1.9,4.3-4.3,4.3h-14.7c-2.4,0-4.3,1.9-4.3,4.3
			v0c0,2.4,1.9,4.3,4.3,4.3h18.9C122.4,43.7,124.4,45.6,124.4,48z"/>
		<rect x="36.5" y="29.5" class="st11" width="58.3" height="34.1"/>
		<rect x="40.4" y="36.1" class="st8" width="50.6" height="23.2"/>
		<rect x="34.9" y="26.5" class="st11" width="61.7" height="6.2"/>
		<polyline class="st12" points="36.5,26.5 67.3,17.6 94.9,26.5 		"/>
		<circle class="st7" cx="67.3" cy="17.6" r="0.8"/>
		<circle class="st8" cx="55.2" cy="52.2" r="1.3"/>
		<line class="st8" x1="85.7" y1="45.3" x2="88.4" y2="47.9"/>
		<line class="st8" x1="88.4" y1="45.3" x2="85.7" y2="47.9"/>
		<polyline class="st8" points="46.3,39.8 67.3,44.1 79.5,54.1 81.7,46.6 		"/>
		<circle class="st13" cx="46.3" cy="39.8" r="1.3"/>
		<circle class="st13" cx="39.8" cy="29.5" r="1.3"/>
		<circle class="st13" cx="91.5" cy="29.5" r="1.3"/>
		<circle class="st13" cx="67.3" cy="44.1" r="1.3"/>
		<circle class="st13" cx="81.7" cy="46.6" r="1.3"/>
		<circle class="st13" cx="79.5" cy="54.1" r="1.3"/>
		<g>
			<line class="st9" x1="56.6" y1="52.2" x2="64.9" y2="52.2"/>
			<g>
				<line class="st14" x1="56.6" y1="52.2" x2="62.7" y2="52.2"/>
				<g>
					<polygon class="st7" points="62.3,53.7 64.9,52.2 62.3,50.7 					"/>
				</g>
			</g>
		</g>
		<rect x="79.6" y="60.9" class="st11" width="9.6" height="3.7"/>
		<rect x="34.9" y="62.7" class="st11" width="61.7" height="1.9"/>
		<line class="st8" x1="80.7" y1="61.8" x2="88.1" y2="61.8"/>
		<g>
			<line class="st3" x1="113.8" y1="39.8" x2="116.7" y2="39.8"/>
			<line class="st3" x1="100.4" y1="39.8" x2="112.6" y2="39.8"/>
		</g>
		<g>
			<line class="st3" x1="51.1" y1="13.8" x2="54" y2="13.8"/>
			<line class="st3" x1="37.7" y1="13.8" x2="49.9" y2="13.8"/>
		</g>
		<g>
			<line class="st3" x1="99.6" y1="53.6" x2="98.2" y2="53.6"/>
			<line class="st3" x1="108.1" y1="53.6" x2="100.9" y2="53.6"/>
		</g>
		<g>
			<line class="st3" x1="90.8" y1="68.1" x2="92.7" y2="68.1"/>
			<line class="st3" x1="78.7" y1="68.1" x2="89.5" y2="68.1"/>
		</g>
		<g>
			<line class="st3" x1="23.8" y1="30.8" x2="22.7" y2="30.8"/>
			<line class="st3" x1="30.7" y1="30.8" x2="25.1" y2="30.8"/>
		</g>
	</g>
</g>
</svg>
