<?xml version="1.0" encoding="utf-8"?>
<!-- Generator: Adobe Illustrator 22.1.0, SVG Export Plug-In . SVG Version: 6.00 Build 0)  -->
<svg version="1.1" id="Layer_1" xmlns="http://www.w3.org/2000/svg" xmlns:xlink="http://www.w3.org/1999/xlink" x="0px" y="0px"
	 viewBox="0 0 128 77.4" style="enable-background:new 0 0 128 77.4;" xml:space="preserve">
<style type="text/css">
	.st0{fill:none;stroke:#FEE359;stroke-width:0.75;stroke-miterlimit:10;}
	.st1{fill:none;stroke:#414042;stroke-width:0.75;stroke-linecap:round;stroke-linejoin:round;stroke-miterlimit:10;}
	.st2{fill:#FFFFFF;stroke:#414042;stroke-width:0.75;stroke-linecap:round;stroke-linejoin:round;stroke-miterlimit:10;}
	.st3{fill:#7CBD42;stroke:#414042;stroke-width:0.75;stroke-linecap:round;stroke-linejoin:round;stroke-miterlimit:10;}
	.st4{fill:none;stroke:#FFFFFF;stroke-width:0.75;stroke-linecap:round;stroke-linejoin:round;stroke-miterlimit:10;}
	.st5{fill:#7CBD42;}
	.st6{fill:none;stroke:#7CBD42;stroke-width:0.75;stroke-linecap:round;stroke-linejoin:round;stroke-miterlimit:10;}
	.st7{fill:#FFFFFF;}
	.st8{fill:none;stroke:#414042;stroke-width:0.75;stroke-miterlimit:10;}
</style>
<g>
	<path class="st0" d="M99.4,40.2L99.4,40.2c0,2.6,2.1,4.7,4.7,4.7h11c2.6,0,4.7,2.1,4.7,4.7v0c0,2.6-2.1,4.7-4.7,4.7h-6.4
		c-2.6,0-4.7,2.1-4.7,4.7v0c0,2.6-2.1,4.7-4.7,4.7H29.6c-2.6,0-4.7-2.1-4.7-4.7v0c0-2.6,2.1-4.7,4.7-4.7h1.2c2.6,0,4.7-2.1,4.7-4.7
		v0c0-2.6-2.1-4.7-4.7-4.7H8.2c-2.6,0-4.7-2.1-4.7-4.7v0c0-2.6,2.1-4.7,4.7-4.7h20.6c2.6,0,4.7-2.1,4.7-4.7v0c0-2.6-2.1-4.7-4.7-4.7
		h-2.3c-2.6,0-4.7-2.1-4.7-4.7v0c0-2.6,2.1-4.7,4.7-4.7h22.7c2.6,0,4.7-2.1,4.7-4.7v0C53.9,9.2,56,7,58.6,7h29
		c2.6,0,4.7,2.1,4.7,4.7v0c0,2.6,2.1,4.7,4.7,4.7h22.7c2.6,0,4.7,2.1,4.7,4.7v0c0,2.6-2.1,4.7-4.7,4.7h-2.3c-2.6,0-4.7,2.1-4.7,4.7
		v0c0,2.6-2.1,4.7-4.7,4.7h-3.8C101.5,35.4,99.4,37.5,99.4,40.2z"/>
	<polygon class="st1" points="87,37.1 40.7,37.1 46.5,34.1 92.8,34.1 	"/>
	<g>
		<polygon class="st2" points="69.1,20.8 56,39 56,20.8 		"/>
		<polygon class="st2" points="71,20.8 71,41.7 56,41.7 54.5,41.1 56,39 69.1,20.8 69.5,20.2 		"/>
		<rect x="54.5" y="20.2" class="st3" width="15" height="20.9"/>
		<line class="st4" x1="56.3" y1="23.2" x2="65" y2="23.2"/>
		<line class="st4" x1="56.3" y1="24.5" x2="60.6" y2="24.5"/>
	</g>
	<g>
		<polygon class="st2" points="58.4,26.9 64,47.8 45.5,52.8 38.9,28.3 53.9,24.3 		"/>
		<polygon class="st1" points="58.4,26.9 54.8,27.9 53.9,24.3 		"/>
		<g>
			<circle class="st5" cx="41.5" cy="29.6" r="0.7"/>
			<line class="st6" x1="43.2" y1="29.1" x2="45.5" y2="28.5"/>
			<line class="st6" x1="58.9" y1="44.4" x2="61.2" y2="43.8"/>
			<line class="st6" x1="44.8" y1="34.9" x2="55.9" y2="32"/>
			<line class="st6" x1="45.2" y1="43.1" x2="56.3" y2="40.1"/>
			<line class="st6" x1="43.5" y1="36.9" x2="56.3" y2="33.5"/>
			<line class="st6" x1="43.9" y1="38.5" x2="56.8" y2="35"/>
			<line class="st6" x1="44.3" y1="40" x2="57.2" y2="36.6"/>
			<line class="st6" x1="44.7" y1="41.6" x2="57.6" y2="38.1"/>
		</g>
	</g>
	<g>
		<g>
			<g>
				<rect x="69.2" y="27.6" transform="matrix(0.5 -0.866 0.866 0.5 9.8669 88.8031)" class="st7" width="25.3" height="16.6"/>
				<rect x="69.2" y="27.6" transform="matrix(0.5 -0.866 0.866 0.5 9.8669 88.8031)" class="st1" width="25.3" height="16.6"/>
			</g>
			<g>
				
					<rect x="68.2" y="26.3" transform="matrix(0.4226 -0.9063 0.9063 0.4226 15.3105 93.2015)" class="st7" width="25.3" height="16.6"/>
				
					<rect x="68.2" y="26.3" transform="matrix(0.4226 -0.9063 0.9063 0.4226 15.3105 93.2015)" class="st1" width="25.3" height="16.6"/>
			</g>
			<g>
				
					<rect x="67" y="25.1" transform="matrix(0.342 -0.9397 0.9397 0.342 21.0231 96.8386)" class="st7" width="25.3" height="16.6"/>
				
					<rect x="67" y="25.1" transform="matrix(0.342 -0.9397 0.9397 0.342 21.0231 96.8386)" class="st1" width="25.3" height="16.6"/>
			</g>
			<g>
				
					<rect x="65.8" y="24" transform="matrix(0.2588 -0.9659 0.9659 0.2588 26.8916 99.7143)" class="st7" width="25.3" height="16.6"/>
				
					<rect x="65.8" y="24" transform="matrix(0.2588 -0.9659 0.9659 0.2588 26.8916 99.7143)" class="st1" width="25.3" height="16.6"/>
			</g>
		</g>
		<g>
			<circle class="st6" cx="79.2" cy="29.3" r="4.4"/>
			<line class="st6" x1="75.9" y1="20.7" x2="86.6" y2="23.5"/>
			<line class="st6" x1="72.2" y1="34.3" x2="82.9" y2="37.2"/>
			<line class="st6" x1="71.9" y1="35.4" x2="82.6" y2="38.3"/>
			<line class="st6" x1="71.6" y1="36.5" x2="82.3" y2="39.4"/>
			<line class="st6" x1="78.2" y1="22.6" x2="83.6" y2="24"/>
		</g>
	</g>
	<g>
		<rect x="40.7" y="37.1" class="st2" width="46.2" height="33.3"/>
		<polygon class="st2" points="84.7,45.7 38.5,45.7 40.7,37.1 87,37.1 		"/>
		<polygon class="st2" points="92.8,67.5 87,70.4 87,37.1 92.8,34.1 		"/>
		<polygon class="st2" points="89.9,45.2 87,37.1 92.8,34.1 95.4,41.9 		"/>
	</g>
	<circle class="st8" cx="63.8" cy="57.7" r="9.4"/>
	<circle class="st8" cx="63.8" cy="57.7" r="6.2"/>
	<circle class="st5" cx="63.8" cy="57.7" r="2.2"/>
	<g>
		<line class="st1" x1="33.2" y1="59.2" x2="36.4" y2="59.2"/>
		<line class="st1" x1="18.4" y1="59.2" x2="31.8" y2="59.2"/>
	</g>
	<g>
		<line class="st1" x1="86.7" y1="14.2" x2="89.9" y2="14.2"/>
		<line class="st1" x1="71.9" y1="14.2" x2="85.3" y2="14.2"/>
	</g>
	<g>
		<line class="st1" x1="98.6" y1="51.6" x2="97" y2="51.6"/>
		<line class="st1" x1="107.9" y1="51.6" x2="100" y2="51.6"/>
	</g>
	<g>
		<line class="st1" x1="118.8" y1="32" x2="120.9" y2="32"/>
		<line class="st1" x1="105.5" y1="32" x2="117.4" y2="32"/>
	</g>
	<g>
		<line class="st1" x1="41.2" y1="21.5" x2="39.9" y2="21.5"/>
		<line class="st1" x1="48.7" y1="21.5" x2="42.6" y2="21.5"/>
	</g>
</g>
</svg>
